<?xml version="1.0" encoding="UTF-8" standalone="no"?>
<!DOCTYPE svg PUBLIC "-//W3C//DTD SVG 1.1//EN"
 "http://www.w3.org/Graphics/SVG/1.1/DTD/svg11.dtd">
<!-- Generated by graphviz version 2.38.0 (20140413.2041)
 -->
<!-- Title: ice_connection_state Pages: 1 -->
<svg width="654pt" height="950pt"
 viewBox="0.00 0.00 653.71 949.84" xmlns="http://www.w3.org/2000/svg" xmlns:xlink="http://www.w3.org/1999/xlink">
<g id="graph0" class="graph" transform="scale(1 1) rotate(0) translate(4 945.841)">
<title>ice_connection_state</title>
<polygon fill="white" stroke="none" points="-4,4 -4,-945.841 649.709,-945.841 649.709,4 -4,4"/>
<!-- NEW -->
<g id="node1" class="node"><title>NEW</title>
<ellipse fill="none" stroke="black" cx="419.829" cy="-897.34" rx="30.4575" ry="30.4575"/>
<ellipse fill="none" stroke="black" cx="419.829" cy="-897.34" rx="34.486" ry="34.486"/>
<text text-anchor="middle" x="419.829" y="-893.14" font-family="Times,serif" font-size="14.00">NEW</text>
</g>
<!-- CHECKING -->
<g id="node2" class="node"><title>CHECKING</title>
<ellipse fill="none" stroke="black" cx="419.829" cy="-747.043" rx="55.594" ry="55.594"/>
<text text-anchor="middle" x="419.829" y="-742.843" font-family="Times,serif" font-size="14.00">CHECKING</text>
</g>
<!-- NEW&#45;&gt;CHECKING -->
<g id="edge1" class="edge"><title>NEW&#45;&gt;CHECKING</title>
<path fill="none" stroke="black" d="M419.829,-863.06C419.829,-848.283 419.829,-830.357 419.829,-813.098"/>
<polygon fill="black" stroke="black" points="423.329,-813.042 419.829,-803.042 416.329,-813.042 423.329,-813.042"/>
<text text-anchor="middle" x="480.081" y="-823.64" font-family="Times,serif" font-size="14.00">set remote candidates</text>
</g>
<!-- CONNECTED -->
<g id="node3" class="node"><title>CONNECTED</title>
<ellipse fill="none" stroke="black" cx="276.829" cy="-577.591" rx="63.8115" ry="63.8115"/>
<text text-anchor="middle" x="276.829" y="-573.391" font-family="Times,serif" font-size="14.00">CONNECTED</text>
</g>
<!-- CHECKING&#45;&gt;CONNECTED -->
<g id="edge2" class="edge"><title>CHECKING&#45;&gt;CONNECTED</title>
<path fill="none" stroke="black" d="M383.744,-703.788C365.759,-682.728 343.774,-656.983 324.427,-634.329"/>
<polygon fill="black" stroke="black" points="326.861,-631.789 317.705,-626.457 321.538,-636.334 326.861,-631.789"/>
<text text-anchor="middle" x="416.136" y="-662.047" font-family="Times,serif" font-size="14.00">one check completes</text>
</g>
<!-- FAILED -->
<g id="node5" class="node"><title>FAILED</title>
<ellipse fill="none" stroke="black" cx="371.829" cy="-40.8949" rx="40.79" ry="40.79"/>
<text text-anchor="middle" x="371.829" y="-36.6949" font-family="Times,serif" font-size="14.00">FAILED</text>
</g>
<!-- CHECKING&#45;&gt;FAILED -->
<g id="edge3" class="edge"><title>CHECKING&#45;&gt;FAILED</title>
<path fill="none" stroke="black" d="M460.424,-708.577C489.971,-677.084 524.829,-629.204 524.829,-578.591 524.829,-578.591 524.829,-578.591 524.829,-208.695 524.829,-159.034 531.28,-138.222 499.829,-99.7897 480.156,-75.7508 448.377,-61.3013 421.407,-52.8495"/>
<polygon fill="black" stroke="black" points="422.3,-49.4642 411.719,-50.0004 420.325,-56.1798 422.3,-49.4642"/>
<text text-anchor="middle" x="585.269" y="-396.568" font-family="Times,serif" font-size="14.00">all checks have failed</text>
</g>
<!-- COMPLETED -->
<g id="node4" class="node"><title>COMPLETED</title>
<ellipse fill="none" stroke="black" cx="120.829" cy="-400.768" rx="63.3357" ry="63.3357"/>
<text text-anchor="middle" x="120.829" y="-396.568" font-family="Times,serif" font-size="14.00">COMPLETED</text>
</g>
<!-- CONNECTED&#45;&gt;COMPLETED -->
<g id="edge4" class="edge"><title>CONNECTED&#45;&gt;COMPLETED</title>
<path fill="none" stroke="black" d="M215.141,-561.433C181.181,-549.605 141.876,-529.386 121.408,-495.936 117.268,-489.17 114.676,-481.587 113.195,-473.738"/>
<polygon fill="black" stroke="black" points="116.649,-473.158 111.879,-463.697 109.708,-474.067 116.649,-473.158"/>
<text text-anchor="middle" x="173.539" y="-484.736" font-family="Times,serif" font-size="14.00">finished all checks</text>
</g>
<!-- DISCONNECTED -->
<g id="node6" class="node"><title>DISCONNECTED</title>
<ellipse fill="none" stroke="black" cx="232.829" cy="-209.695" rx="77.8107" ry="77.8107"/>
<text text-anchor="middle" x="232.829" y="-205.495" font-family="Times,serif" font-size="14.00">DISCONNECTED</text>
</g>
<!-- CONNECTED&#45;&gt;DISCONNECTED -->
<g id="edge5" class="edge"><title>CONNECTED&#45;&gt;DISCONNECTED</title>
<path fill="none" stroke="black" d="M262.332,-515.46C258.801,-498.824 255.343,-480.755 252.901,-463.936 244.928,-409.029 239.944,-346.931 236.937,-297.97"/>
<polygon fill="black" stroke="black" points="240.415,-297.502 236.325,-287.729 233.428,-297.92 240.415,-297.502"/>
<text text-anchor="middle" x="300.293" y="-396.568" font-family="Times,serif" font-size="14.00">lost connectivity</text>
</g>
<!-- COMPLETED&#45;&gt;DISCONNECTED -->
<g id="edge6" class="edge"><title>COMPLETED&#45;&gt;DISCONNECTED</title>
<path fill="none" stroke="black" d="M61.4715,-378.871C23.716,-362.09 -14.54,-336.306 5.90095,-305.6 36.9604,-258.944 95.8212,-235.183 145.812,-223.103"/>
<polygon fill="black" stroke="black" points="146.716,-226.487 155.681,-220.84 145.152,-219.664 146.716,-226.487"/>
<text text-anchor="middle" x="53.2925" y="-308.4" font-family="Times,serif" font-size="14.00">lost connectivity</text>
</g>
<!-- FAILED&#45;&gt;DISCONNECTED -->
<g id="edge7" class="edge"><title>FAILED&#45;&gt;DISCONNECTED</title>
<path fill="none" stroke="black" d="M364.247,-81.465C360.96,-92.5321 356.322,-104.157 349.829,-113.79 338.145,-131.123 322.353,-146.883 306.156,-160.364"/>
<polygon fill="black" stroke="black" points="303.772,-157.791 298.189,-166.795 308.169,-163.237 303.772,-157.791"/>
<text text-anchor="middle" x="426.653" y="-102.59" font-family="Times,serif" font-size="14.00">wtf how does this work?</text>
</g>
<!-- DISCONNECTED&#45;&gt;CONNECTED -->
<g id="edge8" class="edge"><title>DISCONNECTED&#45;&gt;CONNECTED</title>
<path fill="none" stroke="black" d="M292.293,-260.245C313.417,-281.595 334.703,-308.376 345.829,-337.6 365.805,-390.075 361.064,-409.893 345.829,-463.936 340.529,-482.734 331.121,-501.491 320.923,-518.155"/>
<polygon fill="black" stroke="black" points="317.926,-516.346 315.536,-526.667 323.841,-520.089 317.926,-516.346"/>
<text text-anchor="middle" x="420.272" y="-396.568" font-family="Times,serif" font-size="14.00">was able to reconnect</text>
</g>
<!-- DISCONNECTED&#45;&gt;COMPLETED -->
<g id="edge9" class="edge"><title>DISCONNECTED&#45;&gt;COMPLETED</title>
<path fill="none" stroke="black" d="M166.675,-251.308C148.626,-265.992 131.328,-284.292 121.408,-305.6 118.193,-312.505 116.13,-320.015 114.904,-327.682"/>
<polygon fill="black" stroke="black" points="111.405,-327.48 113.75,-337.812 118.36,-328.273 111.405,-327.48"/>
<text text-anchor="middle" x="173.539" y="-308.4" font-family="Times,serif" font-size="14.00">finished all checks</text>
</g>
<!-- DISCONNECTED&#45;&gt;FAILED -->
<g id="edge10" class="edge"><title>DISCONNECTED&#45;&gt;FAILED</title>
<path fill="none" stroke="black" d="M214.66,-133.73C215.201,-121.64 218.122,-109.819 224.949,-99.7897 246.335,-68.373 287.643,-54.0045 321.019,-47.4331"/>
<polygon fill="black" stroke="black" points="321.862,-50.8379 331.091,-45.6338 320.631,-43.947 321.862,-50.8379"/>
<text text-anchor="middle" x="286.269" y="-102.59" font-family="Times,serif" font-size="14.00">all checks have failed</text>
</g>
<!-- CLOSED -->
<g id="node7" class="node"><title>CLOSED</title>
<ellipse fill="none" stroke="black" cx="516.829" cy="-897.34" rx="44.501" ry="44.501"/>
<text text-anchor="middle" x="516.829" y="-893.14" font-family="Times,serif" font-size="14.00">CLOSED</text>
</g>
</g>
</svg>
